# xmcd CD database file
#
# Track frame offsets:
#	150
#	5867
#	26157
#	43277
#	61325
#	66215
#	91782
#	110050
#	129710
#	145445
#	148180
#	172992
#
# Disc length: 2627 seconds
#
# Revision: 0
# Processed by: cddbd v1.5.1PL0 Copyright (c) Steve Scherf et al.
# Submitted via: CDex 1.51
#
DISCID=b90a410c
DTITLE=アナム＆マキ - QUNAI?
DYEAR=2005
DGENRE=Blues
TTITLE0=QUNAI
TTITLE1=ピカピカ光ル
TTITLE2=雨のち風
TTITLE3=僕らの９箇条
TTITLE4=IORI
TTITLE5=この地球をたゆたう
TTITLE6=こぶたのベイベー
TTITLE7=手のひら
TTITLE8=うらない
TTITLE9=ピントロ
TTITLE10=ピンク
TTITLE11=まじない
EXTD=YEAR: 2005
EXTT0=
EXTT1=
EXTT2=
EXTT3=
EXTT4=
EXTT5=
EXTT6=
EXTT7=
EXTT8=
EXTT9=
EXTT10=
EXTT11=
PLAYORDER=
